<?xml version="1.0" encoding="UTF-8"?>
<svg id="Layer_1" xmlns="http://www.w3.org/2000/svg" xmlns:xlink="http://www.w3.org/1999/xlink" version="1.1" viewBox="0 0 104 38" width="104" height="38">
  <!-- Generator: Adobe Illustrator 29.8.4, SVG Export Plug-In . SVG Version: 2.1.1 Build 6)  -->
  <defs>
    <style>
      .st0 {
        fill: url(#linear-gradient2);
      }

      .st1 {
        fill: url(#linear-gradient1);
      }

      .st2 {
        fill: url(#linear-gradient3);
      }

      .st3 {
        fill: url(#linear-gradient);
      }

      .st4 {
        isolation: isolate;
      }

      .st5 {
        fill: #e19426;
      }
    </style>
    <linearGradient id="linear-gradient" x1="2.8" y1="17.7" x2="11.5" y2="17.7" gradientUnits="userSpaceOnUse">
      <stop offset="0" stop-color="#570d0e"/>
      <stop offset=".3" stop-color="#5d0b0c"/>
      <stop offset="1" stop-color="#ed252e"/>
    </linearGradient>
    <linearGradient id="linear-gradient1" x1="2.2" y1="10.7" x2="19.1" y2="10.7" gradientUnits="userSpaceOnUse">
      <stop offset="0" stop-color="#931a1d"/>
      <stop offset="1" stop-color="#ed252e"/>
    </linearGradient>
    <linearGradient id="linear-gradient2" x1="1450.9" y1="-168.1" x2="1459.6" y2="-168.1" gradientTransform="translate(1472.1 -147.7) rotate(-180)" xlink:href="#linear-gradient"/>
    <linearGradient id="linear-gradient3" x1="1450.3" y1="-175.1" x2="1467.2" y2="-175.1" gradientTransform="translate(1472.1 -147.7) rotate(-180)" xlink:href="#linear-gradient1"/>
  </defs>
  <g class="st4">
    <g class="st4">
      <g class="st4">
        <g class="st4">
          <path class="st5" d="M27.7,13.8l.5-1.1c.7.7,2,1.1,3.3,1.1s2.4-.7,2.4-1.5c0-2.4-6-.9-6-4.6s1.2-2.8,3.8-2.8,2.4.3,3.2.9l-.5,1.1c-.9-.5-1.8-.8-2.7-.8-1.7,0-2.4.7-2.4,1.6,0,2.4,6,.9,6,4.5s-1.2,2.8-3.8,2.8-3-.5-3.8-1.2Z"/>
          <path class="st5" d="M44.5,13.7v1.2h-7.2V5.1h7v1.2h-5.6v3h4.9v1.2h-4.9v3.2h5.8Z"/>
          <path class="st5" d="M53.4,15l-2.1-3c-.2,0-.4,0-.6,0h-2.4v3h-1.4V5.1h3.8c2.6,0,4.1,1.3,4.1,3.4s-.8,2.6-2.2,3.1l2.3,3.3h-1.5ZM53.4,8.5c0-1.4-.9-2.2-2.7-2.2h-2.4v4.4h2.4c1.8,0,2.7-.8,2.7-2.2Z"/>
          <path class="st5" d="M63.4,12.5h-5.2l-1.1,2.5h-1.5l4.5-9.9h1.4l4.5,9.9h-1.5l-1.1-2.5ZM62.9,11.4l-2.1-4.8-2.1,4.8h4.3Z"/>
          <path class="st5" d="M75.4,8.5c0,2.1-1.6,3.4-4.1,3.4h-2.4v3h-1.4V5.1h3.8c2.6,0,4.1,1.3,4.1,3.4ZM74,8.5c0-1.4-.9-2.2-2.7-2.2h-2.4v4.4h2.4c1.8,0,2.7-.8,2.7-2.2Z"/>
          <path class="st5" d="M85.9,5.1v9.9h-1.4v-4.4h-5.7v4.4h-1.4V5.1h1.4v4.2h5.7v-4.2h1.4Z"/>
          <path class="st5" d="M88.9,5.1h1.4v9.9h-1.4V5.1Z"/>
          <path class="st5" d="M92.5,10c0-2.9,2.2-5,5.2-5s2.8.5,3.8,1.5l-.9.9c-.8-.8-1.7-1.2-2.8-1.2-2.2,0-3.9,1.6-3.9,3.8s1.6,3.8,3.9,3.8,2-.4,2.8-1.2l.9.9c-.9,1-2.2,1.6-3.8,1.6-3,0-5.2-2.1-5.2-5Z"/>
        </g>
      </g>
    </g>
    <g class="st4">
      <g class="st4">
        <g class="st4">
          <path class="st5" d="M28.6,22h1.4v8.6h5.3v1.2h-6.8v-9.9Z"/>
          <path class="st5" d="M37,22h1.4v9.9h-1.4v-9.9Z"/>
          <path class="st5" d="M50.5,31.8v-7.2s-3.6,6-3.6,6h-.6l-3.6-6v7.1h-1.4v-9.9h1.2l4.1,6.9,4.1-6.9h1.2v9.9s-1.3,0-1.3,0Z"/>
          <path class="st5" d="M54.8,22h1.4v9.9h-1.4v-9.9Z"/>
          <path class="st5" d="M61.2,23.2h-3.4v-1.2h8.2v1.2h-3.4v8.6h-1.4v-8.6Z"/>
          <path class="st5" d="M74.6,30.6v1.2h-7.2v-9.9h7v1.2h-5.6v3h4.9v1.2h-4.9v3.2h5.8Z"/>
          <path class="st5" d="M76.9,22h4.2c3.2,0,5.3,2,5.3,4.9s-2.2,4.9-5.3,4.9h-4.2v-9.9ZM81,30.6c2.4,0,4-1.5,4-3.7s-1.6-3.7-4-3.7h-2.7v7.4h2.7Z"/>
        </g>
      </g>
    </g>
  </g>
  <g>
    <g>
      <path class="st3" d="M10.5,21.8s1-2.3,1-3.8-.7-2.1-1.8-3-2.5-1.4-2.5-1.4l-4.1,2.6-.3,1.8s.1.7,1.3,1.2,2.5.7,3.5,1.1,1.9.8,2.8,1.6Z"/>
      <path class="st1" d="M17.3,2.7s-.3,1.2-.9,1.8-3,2.2-5.5,2.9-6,2.1-7,3.1-2,2.2-1.8,4.9c0,0,0,.5.2,1.4s.5,1.5.9,1.7c0,0-.2-.6-.1-1.1s1.1-.9,2.2-1.3,1.8-.7,3.7-1.2,3.4-.9,4.8-1.5,3.3-1.5,3.9-2.4,1.2-1.5,1.1-3.7-1.7-4.6-1.7-4.6Z"/>
    </g>
    <g>
      <path class="st0" d="M13.5,16.2s-1,2.3-1,3.8.7,2.1,1.8,3,2.5,1.4,2.5,1.4l4.1-2.6.3-1.8s-.1-.7-1.3-1.2-2.5-.7-3.5-1.1-1.9-.8-2.8-1.6Z"/>
      <path class="st2" d="M6.7,35.3s.3-1.2.9-1.8,3-2.2,5.5-2.9,6-2.1,7-3.1,2-2.2,1.8-4.9c0,0,0-.5-.2-1.4s-.5-1.5-.9-1.7c0,0,.2.6.1,1.1s-1.1.9-2.2,1.3-1.8.7-3.7,1.2-3.4.9-4.8,1.5-3.3,1.5-3.9,2.4-1.2,1.5-1.1,3.7,1.7,4.6,1.7,4.6Z"/>
    </g>
  </g>
</svg>